nColumns=28
nRows=40
DataType=double
version=3
OpenSimVersion=4.1
endheader
time	ground_force_1_vx	ground_force_1_vy	ground_force_1_vz	ground_force_1_px	ground_force_1_py	ground_force_1_pz	ground_force_1_mx	ground_force_1_my	ground_force_1_mz	ground_force_2_vx	ground_force_2_vy	ground_force_2_vz	ground_force_2_px	ground_force_2_py	ground_force_2_pz	ground_force_2_mx	ground_force_2_my	ground_force_2_mz	ground_force_3_vx	ground_force_3_vy	ground_force_3_vz	ground_force_3_px	ground_force_3_py	ground_force_3_pz	ground_force_3_mx	ground_force_3_my	ground_force_3_mz
4.775	-0.76359	-1.2203	0.000342412	0.35375	3.92741e-17	0.075	3.9387e-17	-0.354767	-4.37284e-33	-33.9737	253.373	-17.6466	0.541313	6.00978e-17	1.1134	7.74698e-16	-6.97786	-8.60088e-32	34.5542	393.485	17.0875	0.38836	4.31166e-17	1.30038	4.78109e-16	-4.30642	-5.30808e-32
4.78	-1.06885	-1.22024	0.000385972	0.45525	5.05429e-17	-5.05429e-17	6.09864e-17	-0.549316	-6.77085e-33	-33.3655	254.594	-17.1858	0.539151	5.98578e-17	1.11097	8.06479e-16	-7.26412	-8.95372e-32	34.5525	394.097	16.7848	0.388417	4.31229e-17	1.30023	4.91456e-16	-4.42664	-5.45625e-32
4.785	-0.610973	-1.22032	0.000325577	0.403	4.4742e-17	-0.075	5.0822e-17	-0.457764	-5.64237e-33	-35.1958	253.98	-16.5763	0.540464	6.00036e-17	1.11112	7.43775e-16	-6.69933	-8.25757e-32	34.8577	393.793	16.7839	0.38787	4.30622e-17	1.29984	4.83672e-16	-4.35653	-5.36983e-32
4.79	-0.763597	-1.22029	0.000343922	0.40375	4.48253e-17	-4.48253e-17	4.06576e-17	-0.366211	-4.5139e-33	-34.8909	253.98	-16.4237	0.53993	5.99443e-17	1.11149	7.65421e-16	-6.8943	-8.49787e-32	34.5513	394.098	16.7851	0.388068	4.30842e-17	1.30023	4.92046e-16	-4.43196	-5.46281e-32
4.795	-0.763876	-1.83048	-0.457278	0.335833	3.7285e-17	0.0515	5.84453e-17	-0.526428	2.84217e-17	-34.1297	254.897	-16.4216	0.539805	5.99304e-17	1.11111	7.84007e-16	-7.0617	-8.70422e-32	34.552	393.487	16.9355	0.38836	4.31166e-17	1.30037	4.88914e-16	-4.40375	-5.42804e-32
4.8	-0.763864	-1.83049	-0.304696	0.335833	3.7285e-17	0.051	4.60221e-17	-0.41453	2.84217e-17	-34.7395	254.285	-16.2703	0.540606	6.00193e-17	1.11232	7.61222e-16	-6.85648	-8.45127e-32	34.5516	393.488	16.6304	0.389407	4.32329e-17	1.30037	5.01145e-16	-4.51391	-5.56382e-32
4.805	-0.763603	-1.22029	0.000345337	0.45375	5.03764e-17	0.075	4.95514e-17	-0.44632	-5.50131e-33	-35.0461	254.897	-16.5737	0.538705	5.98083e-17	1.11146	7.1208e-16	-6.41384	-7.90567e-32	34.3958	394.708	16.9404	0.388819	4.31676e-17	1.30103	4.94247e-16	-4.45178	-5.48724e-32
4.81	-0.763857	-1.83049	0.000476267	0.3025	3.35842e-17	0.1	4.23516e-17	-0.38147	-4.70198e-33	-35.3502	253.981	-16.7284	0.539919	5.99431e-17	1.11256	7.85175e-16	-7.07223	-8.71719e-32	34.7006	394.711	16.3303	0.388824	4.31681e-17	1.30125	5.08422e-16	-4.57946	-5.64462e-32
4.815	-0.763318	-0.304937	0.000195067	0.815	9.04832e-17	-0.9	1.16891e-16	-1.05286	-1.29775e-32	-35.5024	253.372	-17.1876	0.541819	6.0154e-17	1.11269	8.32721e-16	-7.50049	-9.24506e-32	34.5489	394.102	16.1754	0.388765	4.31616e-17	1.30115	5.14896e-16	-4.63777	-5.7165e-32
4.82	-0.000710086	-1.52544	0.000364458	0.32	3.55271e-17	-0.06	2.5411e-17	-0.228882	-2.82119e-33	-35.8084	253.677	-17.1866	0.541942	6.01677e-17	1.11171	8.14531e-16	-7.33664	-9.04311e-32	35.158	394.408	16.3295	0.388977	4.31851e-17	1.30085	5.03556e-16	-4.53563	-5.5906e-32
4.825	-0.76361	-1.22029	0.000347073	0.35375	3.92741e-17	-3.92741e-17	4.06576e-17	-0.366211	-4.5139e-33	-36.2657	253.37	-16.5768	0.544512	6.0453e-17	1.11234	7.75718e-16	-6.98705	-8.6122e-32	35.1576	394.408	16.3296	0.388977	4.31851e-17	1.30109	5.12108e-16	-4.61266	-5.68554e-32
4.83	-0.763611	-1.22029	0.00034748	0.45375	5.03764e-17	-0.075	5.20925e-17	-0.469208	-5.78343e-33	-36.7249	253.981	-16.8802	0.543673	6.03598e-17	1.11184	7.84922e-16	-7.06995	-8.71438e-32	35.6167	393.493	16.479	0.390122	4.33122e-17	1.30083	4.87688e-16	-4.3927	-5.41442e-32
4.835	-0.610866	-0.915207	0.000265884	0.470667	5.22545e-17	-0.1	4.23516e-17	-0.38147	2.84217e-17	-37.029	253.065	-17.0349	0.54491	6.04971e-17	1.11221	8.1515e-16	-7.34222	-9.04998e-32	35.1606	392.577	16.1702	0.389159	4.32053e-17	1.29987	5.1778e-16	-4.66374	-5.74851e-32
4.84	-0.458545	-1.5254	-0.457364	0.2018	2.24043e-17	-0.0582	3.86247e-17	-0.3479	-4.2882e-33	-36.8774	253.674	-16.423	0.544083	6.04054e-17	1.11209	7.71323e-16	-6.94746	-8.5634e-32	35.6178	392.577	16.4757	0.389516	4.32449e-17	1.30081	5.03845e-16	-4.53823	-5.5938e-32
4.845	-0.611547	-2.44067	-0.304564	0.2765	3.06977e-17	0.07575	4.31987e-17	-0.389099	-4.79602e-33	-37.337	254.59	-16.573	0.542295	6.02068e-17	1.11063	7.84505e-16	-7.06619	-8.70975e-32	35.7721	391.663	16.1671	0.38961	4.32554e-17	1.30008	5.417e-16	-4.8792	-6.01407e-32
4.85	-0.763888	-1.83047	-0.30469	0.335833	3.7285e-17	0.101	4.68692e-17	-0.42216	2.84217e-17	-36.2672	253.371	-16.7291	0.54397	6.03928e-17	1.11233	8.18638e-16	-7.37364	-9.08871e-32	36.0768	391.664	16.1673	0.389966	4.32949e-17	1.30031	5.27311e-16	-4.74959	-5.85432e-32
4.855	-0.610996	-1.2203	0.000331187	0.353	3.91909e-17	-0.075	4.57398e-17	-0.411987	-5.07814e-33	-37.0294	252.759	-16.4251	0.544783	6.0483e-17	1.11175	7.85789e-16	-7.07776	-8.72401e-32	35.9251	391.053	16.165	0.389909	4.32886e-17	1.30022	5.22963e-16	-4.71043	-5.80605e-32
4.86	-0.61068	-0.304967	0.152756	0.812	9.01501e-17	-1.203	1.06726e-16	-0.961304	-1.1849e-32	-36.4204	253.371	-16.8815	0.54234	6.02118e-17	1.11233	8.17808e-16	-7.36616	-9.0795e-32	35.3135	391.356	16.7764	0.3894	4.32321e-17	1.30039	5.33559e-16	-4.80588	-5.9237e-32
4.865	-0.763659	-1.22026	-0.457397	0.35375	3.92741e-17	-0.07275	6.4798e-17	-0.583649	-7.19403e-33	-35.8103	253.373	-17.0342	0.542896	6.02736e-17	1.11197	8.17248e-16	-7.36112	-9.07328e-32	35.7683	392.578	16.7814	0.388468	4.31286e-17	1.30081	5.33773e-16	-4.8078	-5.92607e-32
4.87	-0.610874	-0.915202	0.00026776	0.470667	5.22545e-17	-0.1	4.74338e-17	-0.427246	2.84217e-17	-35.5055	253.374	-17.492	0.540735	6.00336e-17	1.11159	8.31123e-16	-7.48609	-9.22732e-32	35.7699	391.662	16.778	0.38926	4.32165e-17	1.30056	5.39008e-16	-4.85495	-5.98419e-32
4.875	-0.305776	-1.22033	0.000305783	0.3015	3.34732e-17	-0.075	2.79521e-17	-0.25177	-3.10331e-33	-34.7436	253.985	-17.1855	0.53777	5.97045e-17	1.11111	8.2535e-16	-7.43409	-9.16323e-32	35.6183	391.052	16.623	0.389553	4.3249e-17	1.29999	5.35376e-16	-4.82224	-5.94387e-32
4.88	-0.611021	-1.22029	-0.304835	0.403	4.4742e-17	-0.1485	5.2516e-17	-0.473022	-5.83045e-33	-34.1339	253.989	-18.4064	0.537244	5.96461e-17	1.1118	8.66072e-16	-7.80088	-9.61533e-32	35.9226	391.359	16.3192	0.390112	4.33111e-17	1.29992	5.25805e-16	-4.73603	-5.83761e-32
4.885	-0.610877	-0.915201	0.000268433	0.537333	5.9656e-17	-0.2	5.92923e-17	-0.534058	-6.58277e-33	-33.6752	253.68	-16.7289	0.537119	5.96322e-17	1.11173	8.21341e-16	-7.39798	-9.11871e-32	35.617	391.357	16.777	0.390107	4.33106e-17	1.30016	5.24279e-16	-4.72229	-5.82067e-32
4.89	-0.916535	-1.83044	-0.457252	0.303	3.36398e-17	0.0515	4.57398e-17	-0.411987	-5.07814e-33	-33.2168	253.071	-17.0357	0.536315	5.95429e-17	1.11113	8.4381e-16	-7.60037	-9.36818e-32	35.618	390.747	16.7747	0.391107	4.34216e-17	1.29983	5.36497e-16	-4.83234	-5.95632e-32
4.895	-0.916166	-0.915134	-0.304852	0.539333	5.9878e-17	-0.098	7.22801e-17	-0.651042	-8.02471e-33	-32.456	254.293	-17.1854	0.533637	5.92457e-17	1.11158	8.21852e-16	-7.40258	-9.12439e-32	35.3131	390.44	17.0786	0.391252	4.34377e-17	1.2992	5.19153e-16	-4.67611	-5.76376e-32
4.9	-0.458279	-0.915213	-0.304915	0.536333	5.9545e-17	-0.198	6.71979e-17	-0.605265	-7.46047e-33	-31.6919	253.379	-17.6458	0.533235	5.9201e-17	1.11231	8.7573e-16	-7.88787	-9.72256e-32	35.1582	391.356	17.0822	0.391504	4.34657e-17	1.29993	5.48092e-16	-4.93678	-6.08505e-32
4.905	-0.305781	-1.22033	0.000307169	0.3515	3.90243e-17	-0.15	3.04932e-17	-0.274658	-3.38542e-33	-31.2359	254.297	-18.1013	0.533666	5.92489e-17	1.1112	8.54499e-16	-7.69664	-9.48684e-32	35.6144	391.967	17.0848	0.391213	4.34333e-17	1.30026	5.31577e-16	-4.78802	-5.90168e-32
4.91	-1.06879	-0.9151	0.152933	0.473667	5.25876e-17	-0.201	7.51036e-17	-0.676473	2.84217e-17	-31.3885	254.296	-17.6434	0.535283	5.94284e-17	1.11301	8.46369e-16	-7.62341	-9.39658e-32	35.1563	391.966	17.2372	0.391206	4.34325e-17	1.29979	5.37201e-16	-4.83868	-5.96413e-32
4.915	-0.458674	-1.83049	0.000461323	0.3015	3.34732e-17	0.05	3.81165e-17	-0.343323	-4.23178e-33	-31.6919	253.075	-17.799	0.53418	5.93059e-17	1.11256	8.21474e-16	-7.39918	-9.12019e-32	35.6129	392.27	17.849	0.390013	4.33002e-17	1.29903	5.12594e-16	-4.61704	-5.69094e-32
4.92	-0.763899	-1.83046	0.153075	0.335833	3.7285e-17	0.0495	3.92459e-17	-0.353495	2.84217e-17	-31.0843	254.603	-18.253	0.532191	5.9085e-17	1.11131	8.75399e-16	-7.8849	-9.71889e-32	35.9161	393.189	17.2423	0.390274	4.33291e-17	1.29952	5.19811e-16	-4.68204	-5.77106e-32
4.925	-0.763514	-0.915169	0.000292035	0.471667	5.23655e-17	-0.2	6.26804e-17	-0.564575	2.84217e-17	-30.3209	254.298	-18.1015	0.532607	5.91313e-17	1.113	8.74794e-16	-7.87944	-9.71216e-32	36.0698	392.579	17.2401	0.390572	4.33622e-17	1.29989	5.17228e-16	-4.65878	-5.74239e-32
4.93	-0.763913	-1.83046	-0.304684	0.269167	2.98835e-17	0.101	3.95282e-17	-0.356038	1.42109e-17	-30.3229	255.519	-17.9457	0.53048	5.88951e-17	1.11237	8.59222e-16	-7.73919	-9.53928e-32	36.3735	393.19	17.2426	0.39063	4.33687e-17	1.29952	5.23687e-16	-4.71696	-5.8141e-32
4.935	-0.458414	-1.22031	-0.304848	0.40225	4.46587e-17	-0.1485	4.48927e-17	-0.404358	-4.9841e-33	-30.627	254.604	-18.5583	0.531662	5.90263e-17	1.1131	8.82328e-16	-7.9473	-9.79581e-32	36.22	393.495	17.2438	0.390829	4.33908e-17	1.29921	5.10436e-16	-4.5976	-5.66697e-32
4.94	-0.610888	-0.915191	0.152861	0.404	4.4853e-17	-0.201	6.09864e-17	-0.549316	-6.77085e-33	-31.3905	254.909	-18.4046	0.532863	5.91597e-17	1.11322	8.6894e-16	-7.82672	-9.64717e-32	36.3725	393.496	17.0913	0.391181	4.34298e-17	1.29968	5.19011e-16	-4.67484	-5.76218e-32
4.945	-0.611014	-1.22029	0.000335287	0.403	4.4742e-17	-4.4742e-17	5.0822e-17	-0.457764	-5.64237e-33	-32.4598	255.518	-18.4026	0.530968	5.89493e-17	1.11236	8.35766e-16	-7.52792	-9.27887e-32	36.6774	393.496	17.244	0.390487	4.33528e-17	1.29968	5.25079e-16	-4.72949	-5.82955e-32
4.95	-0.763517	-0.915167	0.000292661	0.471667	5.23655e-17	-0.1	5.92923e-17	-0.534058	2.84217e-17	-31.6994	257.046	-18.5515	0.530624	5.8911e-17	1.1122	8.81544e-16	-7.94024	-9.7871e-32	36.6751	394.41	17.7054	0.390741	4.3381e-17	1.30018	5.17015e-16	-4.65686	-5.74002e-32
4.955	-0.916268	-1.22024	0.000375002	0.4045	4.49085e-17	-4.49085e-17	6.09864e-17	-0.549316	-6.77085e-33	-32.6122	255.213	-18.7085	0.53459	5.93514e-17	1.11296	8.49137e-16	-7.64835	-9.42732e-32	36.5231	394.105	17.5516	0.391235	4.34359e-17	1.29978	5.13664e-16	-4.62668	-5.70282e-32
4.96	-0.611054	-1.22028	-0.457411	0.503	5.58442e-17	0.07725	5.0822e-17	-0.457764	-5.64237e-33	-32.7653	255.518	-18.555	0.534186	5.93066e-17	1.11272	8.62847e-16	-7.77184	-9.57953e-32	36.9803	394.413	17.0952	0.391443	4.34589e-17	1.29924	5.25268e-16	-4.73119	-5.83165e-32
4.965	-0.763657	-1.22026	-0.304814	0.40375	4.48253e-17	0.0015	5.2516e-17	-0.473022	-5.83045e-33	-32.9185	255.824	-18.7067	0.534321	5.93215e-17	1.11318	8.55992e-16	-7.71009	-9.50343e-32	36.8269	394.718	17.2489	0.390944	4.34035e-17	1.29987	5.21495e-16	-4.69721	-5.78976e-32
4.97	-0.610886	-0.915195	0.000270709	0.470667	5.22545e-17	-0.2	6.43745e-17	-0.579834	2.84217e-17	-33.528	255.213	-18.7081	0.534568	5.9349e-17	1.11368	8.63533e-16	-7.77801	-9.58714e-32	36.6743	394.718	17.0963	0.390942	4.34033e-17	1.29964	5.27334e-16	-4.7498	-5.85458e-32
